<mxfile host="app.diagrams.net" agent="Mozilla/5.0 (X11; Linux x86_64; rv:136.0) Gecko/20100101 Firefox/136.0" version="26.1.3">
  <diagram name="Page-1" id="n7QkRAQP_P23h5YXhl_c">
    <mxGraphModel dx="2440" dy="5791" grid="1" gridSize="10" guides="1" tooltips="1" connect="1" arrows="1" fold="1" page="1" pageScale="1" pageWidth="850" pageHeight="1100" math="0" shadow="0">
      <root>
        <mxCell id="0" />
        <mxCell id="1" parent="0" />
        <UserObject label="&lt;div align=&quot;left&quot;&gt;inclinometer design&lt;br&gt;&lt;br&gt;design goals:&lt;br&gt;- 0.01 degree resolution&lt;br&gt;- component cost below ≤ € 100,-&lt;br&gt;- highest accuracy possible&lt;br&gt;&amp;nbsp;&amp;nbsp;&amp;nbsp; - lifetime accuracy&lt;br&gt;&amp;nbsp;&amp;nbsp;&amp;nbsp; - temperature coefficient&lt;br&gt;- digital display&lt;br&gt;- battery powered&lt;br&gt;&amp;nbsp;&amp;nbsp;&amp;nbsp; - rechargeable or nah?&lt;br&gt;- machined casing&lt;br&gt;&lt;br&gt;software features:&lt;br&gt;- high accuracy mode: 1 axis vs 2 axis measurement -&amp;gt; 2 axis allows for 360 degree measurements, 1 axis allows for high accuracy around 0&lt;br&gt;- in 360 degree mode, automatically flip the display&lt;br&gt;- built-in calibration&lt;br&gt;- firmware updates should be possible by the user via an on-board connector&lt;br&gt;&lt;br&gt;design choices:&lt;br&gt;- architecture A: analogue accelerometer, high ENOB adc&lt;br&gt;- architecture B: digital accelerometer (integrated adc)&lt;br&gt;&lt;br&gt;components options:&lt;br&gt;- architecture A:&lt;br&gt;&amp;nbsp;&amp;nbsp;&amp;nbsp; - adc: ADS1288 https://www.ti.com/lit/ds/symlink/ads1288.pdf?ts=1735241163135&amp;amp;ref_url=https%253A%252F%252Fwww.ti.com%252Fproduct%252FADS1288&lt;br&gt;&amp;nbsp;&amp;nbsp;&amp;nbsp;&amp;nbsp;&amp;nbsp;&amp;nbsp;&amp;nbsp; - € 40,34 / 100&lt;br&gt;&amp;nbsp;&amp;nbsp;&amp;nbsp;&amp;nbsp;&amp;nbsp;&amp;nbsp;&amp;nbsp; - 32 bit adc&lt;br&gt;&amp;nbsp;&amp;nbsp;&amp;nbsp; - adc: ADS1263&lt;br&gt;&amp;nbsp;&amp;nbsp;&amp;nbsp;&amp;nbsp;&amp;nbsp;&amp;nbsp;&amp;nbsp; - € 14,73&lt;br&gt;&amp;nbsp;&amp;nbsp;&amp;nbsp;&amp;nbsp;&amp;nbsp;&amp;nbsp;&amp;nbsp; - enob around 25 bits&lt;br&gt;&amp;nbsp;&amp;nbsp;&amp;nbsp;&amp;nbsp;&amp;nbsp;&amp;nbsp;&amp;nbsp; - 10 channels&lt;br&gt;&amp;nbsp;&amp;nbsp;&amp;nbsp; - accelerometer: analog devices ADXL354&lt;br&gt;&amp;nbsp;&amp;nbsp;&amp;nbsp;&amp;nbsp;&amp;nbsp;&amp;nbsp;&amp;nbsp; - 20 μg/√Hz&lt;br&gt;&amp;nbsp;&amp;nbsp;&amp;nbsp;&amp;nbsp;&amp;nbsp;&amp;nbsp;&amp;nbsp; - € 43,62 / 100&lt;br&gt;&amp;nbsp;&amp;nbsp;&amp;nbsp; - accelerometer: https://www.skymems.com/products/ma1000a/&lt;br&gt;&amp;nbsp;&amp;nbsp;&amp;nbsp;&amp;nbsp;&amp;nbsp;&amp;nbsp;&amp;nbsp; - allegedly 1.2 μg/√Hz but i&#39;m sure that&#39;s complete bullshit&lt;br&gt;- architecture B:&lt;br&gt;&amp;nbsp;&amp;nbsp;&amp;nbsp; - murata SCL3400: https://www.murata.com/en-eu/products/sensor/inclinometer/overview/lineup/scl3400&lt;br&gt;&amp;nbsp;&amp;nbsp;&amp;nbsp;&amp;nbsp;&amp;nbsp;&amp;nbsp;&amp;nbsp; - 2-axis&lt;br&gt;&amp;nbsp;&amp;nbsp;&amp;nbsp;&amp;nbsp;&amp;nbsp;&amp;nbsp;&amp;nbsp; - factory calibrated&lt;br&gt;&amp;nbsp;&amp;nbsp;&amp;nbsp;&amp;nbsp;&amp;nbsp;&amp;nbsp;&amp;nbsp; - 16 µg/√Hz | 0.0009 °/√Hz noise density&lt;br&gt;&amp;nbsp;&amp;nbsp;&amp;nbsp;&amp;nbsp;&amp;nbsp;&amp;nbsp;&amp;nbsp; - mode A = ± 30° measurement range, mode B = ± 90 °, but measurement range is 0.5 g in mode A ???? how is that supposed to work?&lt;br&gt;&amp;nbsp;&amp;nbsp;&amp;nbsp;&amp;nbsp;&amp;nbsp;&amp;nbsp;&amp;nbsp; - mode A = 32768 LSB/g (572 LSB/° between 0 and 1 deg) (16 bit)&lt;br&gt;&amp;nbsp;&amp;nbsp;&amp;nbsp;&amp;nbsp;&amp;nbsp;&amp;nbsp;&amp;nbsp; - € 41,60 per 100 units&lt;br&gt;&amp;nbsp;&amp;nbsp;&amp;nbsp;&amp;nbsp;&amp;nbsp;&amp;nbsp;&amp;nbsp; - min -0.5 % max +0.5 % error temperature sensitivity (0.008 %/°C)&lt;br&gt;&amp;nbsp;&amp;nbsp;&amp;nbsp; - analog devices ADXL355&lt;br&gt;&amp;nbsp;&amp;nbsp;&amp;nbsp;&amp;nbsp;&amp;nbsp;&amp;nbsp;&amp;nbsp; - 3-axis&lt;br&gt;&amp;nbsp;&amp;nbsp;&amp;nbsp;&amp;nbsp;&amp;nbsp;&amp;nbsp;&amp;nbsp; - not factory calibrated&lt;br&gt;&amp;nbsp;&amp;nbsp;&amp;nbsp;&amp;nbsp;&amp;nbsp;&amp;nbsp;&amp;nbsp; - 25 μg/√Hz&lt;br&gt;&amp;nbsp;&amp;nbsp;&amp;nbsp;&amp;nbsp;&amp;nbsp;&amp;nbsp;&amp;nbsp; - 256,000 LSB/g (20 bit)&lt;br&gt;&amp;nbsp;&amp;nbsp;&amp;nbsp;&amp;nbsp;&amp;nbsp;&amp;nbsp;&amp;nbsp; - € 48,22 per 100 units&lt;br&gt;&amp;nbsp;&amp;nbsp;&amp;nbsp;&amp;nbsp;&amp;nbsp;&amp;nbsp;&amp;nbsp; - ±0.01 %/°C temp coefficient&lt;br&gt;&amp;nbsp;&amp;nbsp;&amp;nbsp;&amp;nbsp;&amp;nbsp;&amp;nbsp;&amp;nbsp; - repeatability of 3.5 mg typical, max offset error is like 75 mg, typical 25 mg&lt;br&gt;&amp;nbsp;&amp;nbsp;&amp;nbsp; - ST IIS2ICLX&lt;br&gt;&amp;nbsp;&amp;nbsp;&amp;nbsp;&amp;nbsp;&amp;nbsp;&amp;nbsp;&amp;nbsp; - 15 µg/√Hz (max 30)&lt;br&gt;&amp;nbsp;&amp;nbsp;&amp;nbsp;&amp;nbsp;&amp;nbsp;&amp;nbsp;&amp;nbsp; - 0.015 mg/LSB max sensitivity (16 bit)&lt;br&gt;&amp;nbsp;&amp;nbsp;&amp;nbsp;&amp;nbsp;&amp;nbsp;&amp;nbsp;&amp;nbsp; - € 22,38 / 100 units&lt;br&gt;&amp;nbsp;&amp;nbsp;&amp;nbsp;&amp;nbsp;&amp;nbsp;&amp;nbsp;&amp;nbsp; - +/- 8 mg max zero offset error&lt;br&gt;&amp;nbsp;&amp;nbsp;&amp;nbsp; - honorable mention: analog devices ADIS16203&lt;br&gt;&lt;br&gt;&amp;nbsp;&amp;nbsp;&amp;nbsp;&amp;nbsp;&amp;nbsp;&amp;nbsp; &amp;nbsp;&lt;br&gt;&amp;nbsp;&amp;nbsp;&amp;nbsp;&amp;nbsp;&amp;nbsp;&amp;nbsp;&amp;nbsp; i really have to create a table for this lol&lt;br&gt;&amp;nbsp;&amp;nbsp;&amp;nbsp;&amp;nbsp;&amp;nbsp;&amp;nbsp; &amp;nbsp;&lt;br&gt;&amp;nbsp;&amp;nbsp;&amp;nbsp;&amp;nbsp;&amp;nbsp;&amp;nbsp; &amp;nbsp;&lt;br&gt;questions:&lt;br&gt;- what is the most important specification for an accelerometer when used as a digital inclinometer?&lt;br&gt;&amp;nbsp;&amp;nbsp;&amp;nbsp; - angle resolution&lt;br&gt;&amp;nbsp;&amp;nbsp;&amp;nbsp; - offset error (drift over time), which is something that piece of shit suffered from&lt;br&gt;- what parts use the most power; how to maximise battery life? a few years on a single charge would be nice&lt;br&gt;&amp;nbsp;&amp;nbsp;&amp;nbsp; - what size does it need to be for a 2 year battery life on a single charge?&lt;br&gt;&amp;nbsp;&amp;nbsp;&amp;nbsp; - if a rechargeable battery is used; use a pouch cell or a battery holder? fuel gauge xd?&lt;/div&gt;" link="inclinometer design&#xa;&#xa;design goals:&#xa;- 0.01 degree resolution&#xa;- component cost below ≤ € 100,-&#xa;- highest accuracy possible&#xa;    - lifetime accuracy&#xa;    - temperature coefficient&#xa;- digital display&#xa;- battery powered&#xa;    - rechargeable or nah?&#xa;- machined casing&#xa;&#xa;software features:&#xa;- high accuracy mode: 1 axis vs 2 axis measurement -&gt; 2 axis allows for 360 degree measurements, 1 axis allows for high accuracy around 0&#xa;- in 360 degree mode, automatically flip the display&#xa;- built-in calibration&#xa;- firmware updates should be possible by the user via an on-board connector&#xa;&#xa;design choices:&#xa;- architecture A: analogue accelerometer, high ENOB adc&#xa;- architecture B: digital accelerometer (integrated adc)&#xa;&#xa;components options:&#xa;- architecture A:&#xa;    - adc: ADS1288 https://www.ti.com/lit/ds/symlink/ads1288.pdf?ts=1735241163135&amp;ref_url=https%253A%252F%252Fwww.ti.com%252Fproduct%252FADS1288&#xa;        - € 40,34 / 100&#xa;        - 32 bit adc&#xa;    - adc: ADS1263&#xa;        - € 14,73&#xa;        - enob around 25 bits&#xa;        - 10 channels&#xa;    - accelerometer: analog devices ADXL354&#xa;        - 20 μg/√Hz&#xa;        - € 43,62 / 100&#xa;    - accelerometer: https://www.skymems.com/products/ma1000a/&#xa;        - allegedly 1.2 μg/√Hz but i&#39;m sure that&#39;s complete bullshit&#xa;- architecture B:&#xa;    - murata SCL3400: https://www.murata.com/en-eu/products/sensor/inclinometer/overview/lineup/scl3400&#xa;        - 2-axis&#xa;        - factory calibrated&#xa;        - 16 µg/√Hz | 0.0009 °/√Hz noise density&#xa;        - mode A = ± 30° measurement range, mode B = ± 90 °, but measurement range is 0.5 g in mode A ???? how is that supposed to work?&#xa;        - mode A = 32768 LSB/g (572 LSB/° between 0 and 1 deg) (16 bit)&#xa;        - € 41,60 per 100 units&#xa;        - min -0.5 % max +0.5 % error temperature sensitivity (0.008 %/°C)&#xa;    - analog devices ADXL355&#xa;        - 3-axis&#xa;        - not factory calibrated&#xa;        - 25 μg/√Hz&#xa;        - 256,000 LSB/g (20 bit)&#xa;        - € 48,22 per 100 units&#xa;        - ±0.01 %/°C temp coefficient&#xa;        - repeatability of 3.5 mg typical, max offset error is like 75 mg, typical 25 mg&#xa;    - ST IIS2ICLX&#xa;        - 15 µg/√Hz (max 30)&#xa;        - 0.015 mg/LSB max sensitivity (16 bit)&#xa;        - € 22,38 / 100 units&#xa;        - +/- 8 mg max zero offset error&#xa;    - honorable mention: analog devices ADIS16203&#xa;&#xa;        &#xa;        i really have to create a table for this lol&#xa;        &#xa;        &#xa;questions:&#xa;- what is the most important specification for an accelerometer when used as a digital inclinometer?&#xa;    - angle resolution&#xa;    - offset error (drift over time), which is something that piece of shit suffered from&#xa;- what parts use the most power; how to maximise battery life? a few years on a single charge would be nice&#xa;    - what size does it need to be for a 2 year battery life on a single charge?&#xa;    - if a rechargeable battery is used; use a pouch cell or a battery holder? fuel gauge xd?" id="qWIGGgTNQ0NmicxPSZ5V-2">
          <mxCell style="text;html=1;align=left;verticalAlign=middle;whiteSpace=wrap;rounded=0;fillColor=#ffe6cc;strokeColor=#d79b00;" vertex="1" parent="1">
            <mxGeometry x="50" y="-3900" width="630" height="1200" as="geometry" />
          </mxCell>
        </UserObject>
        <mxCell id="qWIGGgTNQ0NmicxPSZ5V-3" value="&lt;div&gt;Testing measurements&lt;br&gt;&lt;br&gt;&lt;div align=&quot;left&quot;&gt;- Do we need to put the mcu to sleep to avoid noise during measurement or does it not improve it at all?&lt;/div&gt;&lt;/div&gt;" style="rounded=0;whiteSpace=wrap;html=1;" vertex="1" parent="1">
          <mxGeometry x="740" y="-3890" width="650" height="60" as="geometry" />
        </mxCell>
      </root>
    </mxGraphModel>
  </diagram>
</mxfile>
